<svg version="1.1" xmlns="http://www.w3.org/2000/svg" viewBox="0 0 345.7597961425781 352.53169157154616" width="345.7597961425781" height="352.53169157154616">
  <!-- svg-source:excalidraw -->
  
  <defs>
    <style class="style-fonts">
      @font-face {
        font-family: "Virgil";
        src: url("https://file%2B.vscode-resource.vscode-cdn.net/Users/ruangguru/.vscode-insiders/extensions/pomdtr.excalidraw-editor-3.7.2/public//dist/excalidraw-assets/Virgil.woff2");
      }
      @font-face {
        font-family: "Cascadia";
        src: url("https://file%2B.vscode-resource.vscode-cdn.net/Users/ruangguru/.vscode-insiders/extensions/pomdtr.excalidraw-editor-3.7.2/public//dist/excalidraw-assets/Cascadia.woff2");
      }
      @font-face {
        font-family: "Assistant";
        src: url("https://file%2B.vscode-resource.vscode-cdn.net/Users/ruangguru/.vscode-insiders/extensions/pomdtr.excalidraw-editor-3.7.2/public//dist/excalidraw-assets/Assistant-Regular.woff2");
      }
    </style>
    
  </defs>
  <rect x="0" y="0" width="345.7597961425781" height="352.53169157154616" fill="#ffffff"></rect><g stroke-linecap="round"><g transform="translate(22.38456616499593 75.75498065654301) rotate(0 136.47311055076216 -1.396780177615824)"><path d="M0 0 C82.43 -2.43, 166.64 -3.89, 272.95 -2.79 M0 0 C79.35 -1.31, 159.14 -1.45, 272.95 -2.79" stroke="#1e1e1e" stroke-width="2" fill="none"></path></g></g><mask></mask><g stroke-linecap="round" transform="translate(143.4006848322008 53.37869305705635) rotate(0 9.383287914498624 8.012676920538297)"><path d="M7.81 0 C9.61 -0.42, 12.01 0.31, 13.76 1.15 C15.5 2, 17.47 3.4, 18.28 5.07 C19.08 6.74, 19.24 9.46, 18.59 11.18 C17.94 12.91, 16.17 14.68, 14.38 15.43 C12.6 16.17, 9.86 16.03, 7.87 15.66 C5.88 15.3, 3.69 14.45, 2.46 13.24 C1.22 12.02, 0.46 10.04, 0.45 8.35 C0.45 6.67, 1.13 4.6, 2.42 3.15 C3.71 1.7, 7.2 0.22, 8.2 -0.35 C9.2 -0.92, 8.39 -0.54, 8.44 -0.29 M8.02 -0.69 C10.09 -0.88, 13.51 0.21, 15.14 1.32 C16.76 2.43, 17.35 4.41, 17.78 5.96 C18.21 7.5, 18.47 9.04, 17.72 10.6 C16.98 12.17, 14.96 14.56, 13.28 15.35 C11.6 16.13, 9.49 15.73, 7.65 15.31 C5.8 14.9, 3.38 14.19, 2.22 12.87 C1.05 11.55, 0.7 9.04, 0.68 7.37 C0.66 5.7, 0.7 4.16, 2.1 2.84 C3.5 1.51, 7.95 -0.01, 9.09 -0.57 C10.22 -1.12, 8.93 -0.7, 8.89 -0.47" stroke="#1e1e1e" stroke-width="2" fill="none"></path></g><g stroke-linecap="round" transform="translate(142.82169164382117 77.65061089759342) rotate(0 9.383287914498624 8.012676920538297)"><path d="M10.49 0.15 C12.41 0.28, 15.08 1.16, 16.53 2.51 C17.98 3.86, 19.1 6.43, 19.18 8.26 C19.27 10.09, 18.34 12.28, 17.04 13.51 C15.73 14.74, 13.32 15.38, 11.34 15.65 C9.35 15.92, 6.83 15.86, 5.12 15.13 C3.41 14.4, 1.81 12.84, 1.07 11.27 C0.33 9.7, 0.12 7.48, 0.7 5.72 C1.27 3.96, 2.82 1.74, 4.53 0.73 C6.23 -0.28, 9.74 -0.31, 10.91 -0.33 C12.07 -0.34, 11.54 0.52, 11.52 0.66 M8.35 0.02 C10.18 -0.2, 11.94 0.46, 13.56 1.23 C15.17 2.01, 17.31 3.04, 18.05 4.67 C18.79 6.29, 18.58 9.33, 17.99 10.98 C17.41 12.63, 16.2 13.7, 14.55 14.55 C12.89 15.4, 10.04 16.33, 8.08 16.08 C6.11 15.82, 4.19 14.33, 2.75 13.04 C1.31 11.75, -0.6 10.13, -0.58 8.32 C-0.55 6.51, 1.43 3.65, 2.91 2.16 C4.39 0.68, 7.42 -0.24, 8.3 -0.57 C9.19 -0.89, 8.28 -0.13, 8.22 0.21" stroke="#1e1e1e" stroke-width="2" fill="none"></path></g><g transform="translate(176.0630971823034 81.7280968259256) rotate(0 30.419967651367188 12.5)"><text x="0" y="0" font-family="Virgil, Segoe UI Emoji" font-size="20px" fill="#e03131" text-anchor="start" style="white-space: pre;" direction="ltr" dominant-baseline="text-before-edge">revert</text></g><g stroke-linecap="round"><g transform="translate(109.76019924297157 58.6583258595665) rotate(0 -0.6910300059047358 20.793869775314306)"><path d="M0 0 C-1.28 15.22, -0.91 29.74, -1.38 41.59 M0 0 C0.06 16.16, -1.14 32.24, -1.38 41.59" stroke="#1e1e1e" stroke-width="2" fill="none"></path></g><g transform="translate(109.76019924297157 58.6583258595665) rotate(0 -0.6910300059047358 20.793869775314306)"><path d="M-7.68 21.76 C-6.16 29.07, -3 35.68, -1.38 41.59 M-7.68 21.76 C-4.75 29.53, -3 37.27, -1.38 41.59" stroke="#1e1e1e" stroke-width="2" fill="none"></path></g><g transform="translate(109.76019924297157 58.6583258595665) rotate(0 -0.6910300059047358 20.793869775314306)"><path d="M6.54 22.35 C2.88 29.43, 0.87 35.82, -1.38 41.59 M6.54 22.35 C4.01 29.95, 0.3 37.46, -1.38 41.59" stroke="#1e1e1e" stroke-width="2" fill="none"></path></g></g><mask></mask><g transform="translate(102.05501023038619 12.070636656746501) rotate(0 51.389984130859375 12.5)"><text x="0" y="0" font-family="Virgil, Segoe UI Emoji" font-size="20px" fill="#1e1e1e" text-anchor="start" style="white-space: pre;" direction="ltr" dominant-baseline="text-before-edge">y = y + 10</text></g><g transform="translate(100.38018247642981 115.90995740202948) rotate(0 36.84998321533203 12.5)"><text x="0" y="0" font-family="Virgil, Segoe UI Emoji" font-size="20px" fill="#1e1e1e" text-anchor="start" style="white-space: pre;" direction="ltr" dominant-baseline="text-before-edge">y = 410</text></g><g stroke-linecap="round"><g transform="translate(281.47584009487696 102.92677116091227) rotate(0 0 -29.313574629179357)"><path d="M0 0 C1.01 -12.78, 0.26 -30, 0 -58.63 M0 0 C0.67 -20.86, 0.52 -42.52, 0 -58.63" stroke="#1e1e1e" stroke-width="2" fill="none"></path></g><g transform="translate(281.47584009487696 102.92677116091227) rotate(0 0 -29.313574629179357)"><path d="M10.64 -31.31 C9.28 -36.25, 5.89 -45.71, 0 -58.63 M10.64 -31.31 C7.54 -40.75, 3.54 -51.08, 0 -58.63" stroke="#1e1e1e" stroke-width="2" fill="none"></path></g><g transform="translate(281.47584009487696 102.92677116091227) rotate(0 0 -29.313574629179357)"><path d="M-9.4 -30.86 C-5.8 -36.05, -4.22 -45.62, 0 -58.63 M-9.4 -30.86 C-5.25 -40.64, -2 -51.13, 0 -58.63" stroke="#1e1e1e" stroke-width="2" fill="none"></path></g></g><mask></mask><g transform="translate(231.72822196564744 109.99245074791475) rotate(0 49.249977111816406 12.5)"><text x="0" y="0" font-family="Virgil, Segoe UI Emoji" font-size="20px" fill="#1e1e1e" text-anchor="start" style="white-space: pre;" direction="ltr" dominant-baseline="text-before-edge">y = y - 10</text></g><g transform="translate(265.85610860046154 10) rotate(0 20.159988403320312 12.5)"><text x="0" y="0" font-family="Virgil, Segoe UI Emoji" font-size="20px" fill="#1e1e1e" text-anchor="start" style="white-space: pre;" direction="ltr" dominant-baseline="text-before-edge">400</text></g><g transform="translate(10 192.53169157154616) rotate(0 162.87989807128906 75)"><text x="0" y="0" font-family="Virgil, Segoe UI Emoji" font-size="20px" fill="#1e1e1e" text-anchor="start" style="white-space: pre;" direction="ltr" dominant-baseline="text-before-edge">if (keyCode == DOWN_ARROW) {</text><text x="0" y="25" font-family="Virgil, Segoe UI Emoji" font-size="20px" fill="#1e1e1e" text-anchor="start" style="white-space: pre;" direction="ltr" dominant-baseline="text-before-edge">   y = y + 10</text><text x="0" y="50" font-family="Virgil, Segoe UI Emoji" font-size="20px" fill="#1e1e1e" text-anchor="start" style="white-space: pre;" direction="ltr" dominant-baseline="text-before-edge">}</text><text x="0" y="75" font-family="Virgil, Segoe UI Emoji" font-size="20px" fill="#1e1e1e" text-anchor="start" style="white-space: pre;" direction="ltr" dominant-baseline="text-before-edge">if (y &gt; 400) {</text><text x="0" y="100" font-family="Virgil, Segoe UI Emoji" font-size="20px" fill="#1e1e1e" text-anchor="start" style="white-space: pre;" direction="ltr" dominant-baseline="text-before-edge">   y = y - 10</text><text x="0" y="125" font-family="Virgil, Segoe UI Emoji" font-size="20px" fill="#1e1e1e" text-anchor="start" style="white-space: pre;" direction="ltr" dominant-baseline="text-before-edge">}</text></g></svg>