<svg version="1.1" xmlns="http://www.w3.org/2000/svg" viewBox="0 0 1158.3412458622993 1065.4585772963062" width="1158.3412458622993" height="1065.4585772963062">
  <!-- svg-source:excalidraw -->
  
  <defs>
    <style class="style-fonts">
      @font-face {
        font-family: "Virgil";
        src: url("https://file%2B.vscode-resource.vscode-cdn.net/Users/ruangguru/.vscode-insiders/extensions/pomdtr.excalidraw-editor-3.7.2/public//dist/excalidraw-assets/Virgil.woff2");
      }
      @font-face {
        font-family: "Cascadia";
        src: url("https://file%2B.vscode-resource.vscode-cdn.net/Users/ruangguru/.vscode-insiders/extensions/pomdtr.excalidraw-editor-3.7.2/public//dist/excalidraw-assets/Cascadia.woff2");
      }
      @font-face {
        font-family: "Assistant";
        src: url("https://file%2B.vscode-resource.vscode-cdn.net/Users/ruangguru/.vscode-insiders/extensions/pomdtr.excalidraw-editor-3.7.2/public//dist/excalidraw-assets/Assistant-Regular.woff2");
      }
    </style>
    
  </defs>
  <rect x="0" y="0" width="1158.3412458622993" height="1065.4585772963062" fill="#ffffff"></rect><g stroke-linecap="round"><g transform="translate(175.93792080508825 11.658629621452064) rotate(0 437.3518524169922 0.5110626220703125)"><path d="M-0.86 -0.4 C144.71 -0.5, 728.18 -0.31, 874.05 0 M0.88 -1.66 C146.8 -1.69, 731 0.84, 876.42 1" stroke="#1e1e1e" stroke-width="2" fill="none"></path></g></g><mask></mask><g transform="translate(170.41774868594763 45.35525437731144) rotate(0 5.5615234375 11.5)"><text x="0" y="0" font-family="Helvetica, Segoe UI Emoji" font-size="20px" fill="#1e1e1e" text-anchor="start" style="white-space: pre;" direction="ltr" dominant-baseline="text-before-edge">0</text></g><g transform="translate(214.41774868594757 44.35525437731144) rotate(0 5.5615234375 11.5)"><text x="0" y="0" font-family="Helvetica, Segoe UI Emoji" font-size="20px" fill="#1e1e1e" text-anchor="start" style="white-space: pre;" direction="ltr" dominant-baseline="text-before-edge">1</text></g><g transform="translate(250.77062344180695 44.19833299059269) rotate(0 5.5615234375 11.5)"><text x="0" y="0" font-family="Helvetica, Segoe UI Emoji" font-size="20px" fill="#1e1e1e" text-anchor="start" style="white-space: pre;" direction="ltr" dominant-baseline="text-before-edge">2</text></g><g transform="translate(292.84984707461945 42.54275437731144) rotate(0 5.5615234375 11.5)"><text x="0" y="0" font-family="Helvetica, Segoe UI Emoji" font-size="20px" fill="#1e1e1e" text-anchor="start" style="white-space: pre;" direction="ltr" dominant-baseline="text-before-edge">3</text></g><g transform="translate(936.8290646039163 36.176207746452064) rotate(0 16.6845703125 11.5)"><text x="0" y="0" font-family="Helvetica, Segoe UI Emoji" font-size="20px" fill="#1e1e1e" text-anchor="start" style="white-space: pre;" direction="ltr" dominant-baseline="text-before-edge">100</text></g><g mask="url(#mask-py9fifABQfUA_4GGthJ45)" stroke-linecap="round"><g transform="translate(177.7640827724718 77.86304596932655) rotate(0 0 73.759765625)"><path d="M-0.23 1.16 C0 25.69, 0.9 123, 1.06 147.27 M-1.81 0.72 C-1.61 25.42, 0.31 124.19, 0.67 148.67" stroke="#1e1e1e" stroke-width="2" fill="none"></path></g><g transform="translate(177.7640827724718 77.86304596932655) rotate(0 0 73.759765625)"><path d="M-10.07 120.66 C-5.2 130.05, -4.64 137.1, 0.67 148.67 M-10.07 120.66 C-6.61 127.57, -4.44 134.48, 0.67 148.67" stroke="#1e1e1e" stroke-width="2" fill="none"></path></g><g transform="translate(177.7640827724718 77.86304596932655) rotate(0 0 73.759765625)"><path d="M10.45 120.31 C9.75 129.76, 4.75 136.9, 0.67 148.67 M10.45 120.31 C9.1 127.47, 6.47 134.46, 0.67 148.67" stroke="#1e1e1e" stroke-width="2" fill="none"></path></g></g><mask id="mask-py9fifABQfUA_4GGthJ45"><rect x="0" y="0" fill="#fff" width="277.7640827724718" height="325.3825772193266"></rect><rect x="156.0892780849718" y="140.12281159432655" fill="#000" width="43.349609375" height="23" opacity="1"></rect></mask><g transform="translate(156.0892780849718 140.12281159432655) rotate(0 21.30012992087751 12.43663884148009)"><text x="21.6748046875" y="0" font-family="Helvetica, Segoe UI Emoji" font-size="20px" fill="#1e1e1e" text-anchor="middle" style="white-space: pre;" direction="ltr" dominant-baseline="text-before-edge">draw</text></g><g mask="url(#mask-rk7FAwLtv0iZaIgvxHfzr)" stroke-linecap="round"><g transform="translate(256.9307697841905 79.7641079810453) rotate(0 -0.740570068359375 72.3095703125)"><path d="M0.73 -0.79 C0.48 23.52, -0.22 121.3, -0.45 145.62 M-0.34 1.41 C-0.75 25.43, -0.75 120.42, -0.86 144.03" stroke="#1e1e1e" stroke-width="2" fill="none"></path></g><g transform="translate(256.9307697841905 79.7641079810453) rotate(0 -0.740570068359375 72.3095703125)"><path d="M-11.05 115.81 C-8.47 128.44, -1.51 139.08, -0.86 144.03 M-11.05 115.81 C-7.27 124.96, -3.34 136.02, -0.86 144.03" stroke="#1e1e1e" stroke-width="2" fill="none"></path></g><g transform="translate(256.9307697841905 79.7641079810453) rotate(0 -0.740570068359375 72.3095703125)"><path d="M9.47 115.86 C4.08 128.59, 3.06 139.22, -0.86 144.03 M9.47 115.86 C6.2 125.15, 3.09 136.19, -0.86 144.03" stroke="#1e1e1e" stroke-width="2" fill="none"></path></g></g><mask id="mask-rk7FAwLtv0iZaIgvxHfzr"><rect x="0" y="0" fill="#fff" width="358.41190992090924" height="324.38324860604536"></rect><rect x="234.5153950283311" y="140.5736782935453" fill="#000" width="43.349609375" height="23" opacity="1"></rect></mask><g transform="translate(234.5153950283311 140.5736782935453) rotate(0 22.35456250999121 11.607587086036801)"><text x="21.6748046875" y="0" font-family="Helvetica, Segoe UI Emoji" font-size="20px" fill="#1e1e1e" text-anchor="middle" style="white-space: pre;" direction="ltr" dominant-baseline="text-before-edge">draw</text></g><g transform="translate(337.66569410059674 40.9828579810453) rotate(0 5.5615234375 11.5)"><text x="0" y="0" font-family="Helvetica, Segoe UI Emoji" font-size="20px" fill="#1e1e1e" text-anchor="start" style="white-space: pre;" direction="ltr" dominant-baseline="text-before-edge">4</text></g><g mask="url(#mask-tU8DDX5mZh2GnAryY5XFN)" stroke-linecap="round"><g transform="translate(340.5020893642686 80.96531733444021) rotate(0 -0.740570068359375 72.3095703125)"><path d="M0.43 0.94 C0.08 24.86, -1.07 119.93, -1.27 144.06 M-0.81 0.38 C-1.37 24.42, -2.05 121.38, -2.1 145.31" stroke="#1e1e1e" stroke-width="2" fill="none"></path></g><g transform="translate(340.5020893642686 80.96531733444021) rotate(0 -0.740570068359375 72.3095703125)"><path d="M-12.21 117.06 C-6.79 127.84, -5.54 139.16, -2.1 145.31 M-12.21 117.06 C-8.11 127.33, -3.74 138.26, -2.1 145.31" stroke="#1e1e1e" stroke-width="2" fill="none"></path></g><g transform="translate(340.5020893642686 80.96531733444021) rotate(0 -0.740570068359375 72.3095703125)"><path d="M8.31 117.17 C6.14 127.98, -0.2 139.26, -2.1 145.31 M8.31 117.17 C4.39 127.44, 0.74 138.32, -2.1 145.31" stroke="#1e1e1e" stroke-width="2" fill="none"></path></g></g><mask id="mask-tU8DDX5mZh2GnAryY5XFN"><rect x="0" y="0" fill="#fff" width="441.98322950098736" height="325.5844579594403"></rect><rect x="318.08671460840924" y="141.77488764694021" fill="#000" width="43.349609375" height="23" opacity="1"></rect></mask><g transform="translate(318.08671460840924 141.77488764694021) rotate(0 21.57813676495104 12.035679136067643)"><text x="21.6748046875" y="0" font-family="Helvetica, Segoe UI Emoji" font-size="20px" fill="#1e1e1e" text-anchor="middle" style="white-space: pre;" direction="ltr" dominant-baseline="text-before-edge">draw</text></g><g mask="url(#mask-Gf-e5f4vASQixB_yUFu04)" stroke-linecap="round"><g transform="translate(954.3736927408318 76.44921511601206) rotate(0 -0.740570068359375 72.3095703125)"><path d="M0.74 1.09 C0.29 25.32, -2.19 121.07, -2.48 144.84 M-0.34 0.62 C-0.44 24.51, -0.09 118.84, -0.29 142.83" stroke="#1e1e1e" stroke-width="2" fill="none"></path></g><g transform="translate(954.3736927408318 76.44921511601206) rotate(0 -0.740570068359375 72.3095703125)"><path d="M-10.51 114.62 C-5.57 121.86, -3.78 133.26, -0.29 142.83 M-10.51 114.62 C-7.05 120.6, -5.45 126.79, -0.29 142.83" stroke="#1e1e1e" stroke-width="2" fill="none"></path></g><g transform="translate(954.3736927408318 76.44921511601206) rotate(0 -0.740570068359375 72.3095703125)"><path d="M10.01 114.66 C8.43 122.01, 3.69 133.4, -0.29 142.83 M10.01 114.66 C8.86 120.45, 5.85 126.63, -0.29 142.83" stroke="#1e1e1e" stroke-width="2" fill="none"></path></g></g><mask id="mask-Gf-e5f4vASQixB_yUFu04"><rect x="0" y="0" fill="#fff" width="1055.8548328775505" height="321.0683557410121"></rect><rect x="931.9583179849724" y="137.25878542851206" fill="#000" width="43.349609375" height="23" opacity="1"></rect></mask><g transform="translate(931.9583179849724 137.25878542851206) rotate(0 21.543186421319774 11.918250806443439)"><text x="21.6748046875" y="0" font-family="Helvetica, Segoe UI Emoji" font-size="20px" fill="#1e1e1e" text-anchor="middle" style="white-space: pre;" direction="ltr" dominant-baseline="text-before-edge">draw</text></g><g mask="url(#mask-lJGKHozZQJsgYJAcwU-L9)" stroke-linecap="round"><g transform="translate(958.9485616276152 276.6024071725867) rotate(0 -0.740570068359375 72.3095703125)"><path d="M0.6 0.35 C0.28 24.3, -2 119.72, -2.32 143.91 M-0.55 -0.51 C-0.44 23.56, 0.2 121.06, -0.06 145.08" stroke="#1e1e1e" stroke-width="2" fill="none"></path></g><g transform="translate(958.9485616276152 276.6024071725867) rotate(0 -0.740570068359375 72.3095703125)"><path d="M-10.3 116.88 C-6.96 122.84, -6.03 131.85, -0.06 145.08 M-10.3 116.88 C-5.75 126.93, -3.33 138.8, -0.06 145.08" stroke="#1e1e1e" stroke-width="2" fill="none"></path></g><g transform="translate(958.9485616276152 276.6024071725867) rotate(0 -0.740570068359375 72.3095703125)"><path d="M10.22 116.89 C8.17 122.95, 3.7 131.96, -0.06 145.08 M10.22 116.89 C7.13 126.91, 1.91 138.77, -0.06 145.08" stroke="#1e1e1e" stroke-width="2" fill="none"></path></g></g><mask id="mask-lJGKHozZQJsgYJAcwU-L9"><rect x="0" y="0" fill="#fff" width="1060.429701764334" height="521.2215477975867"></rect><rect x="933.7548665592558" y="337.4119774850867" fill="#000" width="48.90625" height="23" opacity="1"></rect></mask><g transform="translate(933.7548665592558 337.4119774850867) rotate(0 24.33038924448192 11.474987367838708)"><text x="24.453125" y="0" font-family="Helvetica, Segoe UI Emoji" font-size="20px" fill="#1e1e1e" text-anchor="middle" style="white-space: pre;" direction="ltr" dominant-baseline="text-before-edge">move</text></g><g stroke-linecap="round"><g transform="translate(49.88736443392338 767.2419309700765) rotate(0 489.3355673889094 0)"><path d="M-1.1 0.9 C162.13 0.73, 816.39 -0.7, 979.78 -0.89 M0.52 0.32 C163.66 0.27, 816.37 0.08, 979.41 0.18" stroke="#1e1e1e" stroke-width="2" fill="none"></path></g></g><mask></mask><g transform="translate(10 800.6444804438947) rotate(0 56.97265625 11.5)"><text x="0" y="0" font-family="Helvetica, Segoe UI Emoji" font-size="20px" fill="#1e1e1e" text-anchor="start" style="white-space: pre;" direction="ltr" dominant-baseline="text-before-edge">lastMove = 0</text></g><g mask="url(#mask-5iE-Yk391_r9SWxlmL2C-)" stroke-linecap="round"><g transform="translate(255.0055778398729 789.5723261614869) rotate(0 -1.564819360004151 88.42108273275494)"><path d="M-0.03 0.56 C-0.62 30.07, -2.37 146.98, -2.77 176.48 M-1.5 -0.19 C-2.29 29.54, -3.3 148.53, -3.53 177.82" stroke="#1e1e1e" stroke-width="2" fill="none"></path></g><g transform="translate(255.0055778398729 789.5723261614869) rotate(0 -1.564819360004151 88.42108273275494)"><path d="M-13.55 149.54 C-9.09 160.49, -6.97 171.35, -3.53 177.82 M-13.55 149.54 C-10.89 159.63, -5.82 170.84, -3.53 177.82" stroke="#1e1e1e" stroke-width="2" fill="none"></path></g><g transform="translate(255.0055778398729 789.5723261614869) rotate(0 -1.564819360004151 88.42108273275494)"><path d="M6.97 149.72 C3.93 160.59, -1.45 171.4, -3.53 177.82 M6.97 149.72 C2.26 159.65, -0.03 170.79, -3.53 177.82" stroke="#1e1e1e" stroke-width="2" fill="none"></path></g></g><mask id="mask-5iE-Yk391_r9SWxlmL2C-"><rect x="0" y="0" fill="#fff" width="358.1352165598812" height="1066.4144916269968"></rect><rect x="231.7659537923688" y="866.4934088942418" fill="#000" width="43.349609375" height="23" opacity="1"></rect></mask><g transform="translate(231.76595379236875 866.4934088942416) rotate(0 21.461143881203583 11.893324844669564)"><text x="21.6748046875" y="0" font-family="Helvetica, Segoe UI Emoji" font-size="20px" fill="#1e1e1e" text-anchor="middle" style="white-space: pre;" direction="ltr" dominant-baseline="text-before-edge">draw</text></g><g transform="translate(241.6947670769389 723.7737866940693) rotate(0 11.123046875 11.5)"><text x="0" y="0" font-family="Helvetica, Segoe UI Emoji" font-size="20px" fill="#1e1e1e" text-anchor="start" style="white-space: pre;" direction="ltr" dominant-baseline="text-before-edge">50</text></g><g transform="translate(113.9378394363838 570.0323991944181) rotate(0 128.388671875 11.5)"><text x="0" y="0" font-family="Helvetica, Segoe UI Emoji" font-size="20px" fill="#1e1e1e" text-anchor="start" style="white-space: pre;" direction="ltr" dominant-baseline="text-before-edge">move every 100 milliseconds</text></g><g transform="translate(220.04105052769228 985.7837569399533) rotate(0 55.0341796875 11.5)"><text x="0" y="0" font-family="Helvetica, Segoe UI Emoji" font-size="20px" fill="#e03131" text-anchor="start" style="white-space: pre;" direction="ltr" dominant-baseline="text-before-edge">do not move</text></g><g mask="url(#mask-3hAjbDCk9YXwvcnYQjKVs)" stroke-linecap="round"><g transform="translate(487.43973528079334 795.8333824288554) rotate(0 -1.564819360004151 88.42108273275494)"><path d="M-0.69 0.16 C-1 29.69, -1.62 148.63, -1.98 178.01 M1.15 -0.81 C0.8 28.36, -1.56 146.77, -2.33 176.5" stroke="#1e1e1e" stroke-width="2" fill="none"></path></g><g transform="translate(487.43973528079334 795.8333824288554) rotate(0 -1.564819360004151 88.42108273275494)"><path d="M-11.96 148.09 C-8.72 158.3, -4.24 165.11, -2.33 176.5 M-11.96 148.09 C-9.48 155.12, -6.42 164.23, -2.33 176.5" stroke="#1e1e1e" stroke-width="2" fill="none"></path></g><g transform="translate(487.43973528079334 795.8333824288554) rotate(0 -1.564819360004151 88.42108273275494)"><path d="M8.56 148.54 C5.84 158.5, 4.37 165.19, -2.33 176.5 M8.56 148.54 C5.58 155.28, 3.19 164.27, -2.33 176.5" stroke="#1e1e1e" stroke-width="2" fill="none"></path></g></g><mask id="mask-3hAjbDCk9YXwvcnYQjKVs"><rect x="0" y="0" fill="#fff" width="590.5693740008016" height="1072.6755478943653"></rect><rect x="464.20011123328925" y="872.7544651616104" fill="#000" width="43.349609375" height="23" opacity="1"></rect></mask><g transform="translate(464.20011123328914 872.7544651616101) rotate(0 22.652592256814273 11.678951681516992)"><text x="21.6748046875" y="0" font-family="Helvetica, Segoe UI Emoji" font-size="20px" fill="#1e1e1e" text-anchor="middle" style="white-space: pre;" direction="ltr" dominant-baseline="text-before-edge">draw</text></g><g transform="translate(475.02909214125384 723.5891208282949) rotate(0 11.123046875 11.5)"><text x="0" y="0" font-family="Helvetica, Segoe UI Emoji" font-size="20px" fill="#1e1e1e" text-anchor="start" style="white-space: pre;" direction="ltr" dominant-baseline="text-before-edge">90</text></g><g transform="translate(429.0586246091116 985.5899387312165) rotate(0 55.0341796875 11.5)"><text x="0" y="0" font-family="Helvetica, Segoe UI Emoji" font-size="20px" fill="#e03131" text-anchor="start" style="white-space: pre;" direction="ltr" dominant-baseline="text-before-edge">do not move</text></g><g transform="translate(604.2303057586777 723.9077347026305) rotate(0 15.947265625 11.5)"><text x="0" y="0" font-family="Helvetica, Segoe UI Emoji" font-size="20px" fill="#1e1e1e" text-anchor="start" style="white-space: pre;" direction="ltr" dominant-baseline="text-before-edge">110</text></g><g mask="url(#mask-M0SXI8Lre2UViCDYK43Ji)" stroke-linecap="round"><g transform="translate(617.4205053647169 799.9907964024844) rotate(0 -1.564819360004151 88.42108273275494)"><path d="M1.06 1.12 C0.53 30.48, -3.2 146.8, -3.87 176.14 M0.15 0.67 C0.07 30.17, -0.92 147.65, -1.54 177.3" stroke="#1e1e1e" stroke-width="2" fill="none"></path></g><g transform="translate(617.4205053647169 799.9907964024844) rotate(0 -1.564819360004151 88.42108273275494)"><path d="M-11.41 148.97 C-7.14 154.57, -7.78 163.06, -1.54 177.3 M-11.41 148.97 C-9 158.89, -4.89 167.64, -1.54 177.3" stroke="#1e1e1e" stroke-width="2" fill="none"></path></g><g transform="translate(617.4205053647169 799.9907964024844) rotate(0 -1.564819360004151 88.42108273275494)"><path d="M9.1 149.25 C8.38 154.97, 2.73 163.39, -1.54 177.3 M9.1 149.25 C4.9 159.08, 2.39 167.74, -1.54 177.3" stroke="#1e1e1e" stroke-width="2" fill="none"></path></g></g><mask id="mask-M0SXI8Lre2UViCDYK43Ji"><rect x="0" y="0" fill="#fff" width="720.5501440847252" height="1076.8329618679943"></rect><rect x="594.1808813172128" y="876.9118791352394" fill="#000" width="43.349609375" height="23" opacity="1"></rect></mask><g transform="translate(594.1808813172127 876.9118791352391) rotate(0 21.83547689430418 12.063254984170158)"><text x="21.6748046875" y="0" font-family="Helvetica, Segoe UI Emoji" font-size="20px" fill="#1e1e1e" text-anchor="middle" style="white-space: pre;" direction="ltr" dominant-baseline="text-before-edge">draw</text></g><g transform="translate(591.4022893472719 993.3625577321898) rotate(0 24.453125 11.5)"><text x="0" y="0" font-family="Helvetica, Segoe UI Emoji" font-size="20px" fill="#2f9e44" text-anchor="start" style="white-space: pre;" direction="ltr" dominant-baseline="text-before-edge">move</text></g><g transform="translate(445.685887619534 659.3998077567735) rotate(0 169.4873046875 11.5)"><text x="0" y="0" font-family="Helvetica, Segoe UI Emoji" font-size="20px" fill="#1e1e1e" text-anchor="start" style="white-space: pre;" direction="ltr" dominant-baseline="text-before-edge">if (millis() - lastMove &gt;= 100) { move()}</text></g><g mask="url(#mask-7V1BWK1bwb_7JYCA-kJeP)" stroke-linecap="round"><g transform="translate(687.5561436961148 794.3199742488741) rotate(0 -1.564819360004151 88.42108273275494)"><path d="M0.69 0.34 C0.01 29.77, -3.77 147.44, -4.23 176.79 M-0.41 -0.52 C-0.72 29.09, -1.79 148.62, -2.1 178.29" stroke="#1e1e1e" stroke-width="2" fill="none"></path></g><g transform="translate(687.5561436961148 794.3199742488741) rotate(0 -1.564819360004151 88.42108273275494)"><path d="M-12.09 150 C-8.6 156.25, -6.39 167.99, -2.1 178.29 M-12.09 150 C-8.9 157.6, -6.47 164.96, -2.1 178.29" stroke="#1e1e1e" stroke-width="2" fill="none"></path></g><g transform="translate(687.5561436961148 794.3199742488741) rotate(0 -1.564819360004151 88.42108273275494)"><path d="M8.43 150.2 C6.02 156.5, 2.33 168.19, -2.1 178.29 M8.43 150.2 C6.22 157.76, 3.24 165.07, -2.1 178.29" stroke="#1e1e1e" stroke-width="2" fill="none"></path></g></g><mask id="mask-7V1BWK1bwb_7JYCA-kJeP"><rect x="0" y="0" fill="#fff" width="790.6857824161231" height="1071.162139714384"></rect><rect x="664.3165196486107" y="871.2410569816291" fill="#000" width="43.349609375" height="23" opacity="1"></rect></mask><g transform="translate(664.3165196486107 871.2410569816293) rotate(0 21.46787594445044 11.963443145584279)"><text x="21.6748046875" y="0" font-family="Helvetica, Segoe UI Emoji" font-size="20px" fill="#1e1e1e" text-anchor="middle" style="white-space: pre;" direction="ltr" dominant-baseline="text-before-edge">draw</text></g><g transform="translate(667.4168989143258 720.2769308632694) rotate(0 15.947265625 11.5)"><text x="0" y="0" font-family="Helvetica, Segoe UI Emoji" font-size="20px" fill="#1e1e1e" text-anchor="start" style="white-space: pre;" direction="ltr" dominant-baseline="text-before-edge">115</text></g><g transform="translate(663.6137466690649 988.4637083396565) rotate(0 55.0341796875 11.5)"><text x="0" y="0" font-family="Helvetica, Segoe UI Emoji" font-size="20px" fill="#e03131" text-anchor="start" style="white-space: pre;" direction="ltr" dominant-baseline="text-before-edge">do not move</text></g><g transform="translate(908.2811173516526 723.1231773609222) rotate(0 16.684570312500057 11.5)"><text x="0" y="0" font-family="Helvetica, Segoe UI Emoji" font-size="20px" fill="#1e1e1e" text-anchor="start" style="white-space: pre;" direction="ltr" dominant-baseline="text-before-edge">200</text></g><g mask="url(#mask-6hFJ15GRQTNgJ18mmPeQk)" stroke-linecap="round"><g transform="translate(924.4633907079419 790.0072994689826) rotate(0 -1.5648193600042077 88.42108273275494)"><path d="M-0.88 0.9 C-1.62 30.4, -3.2 146.81, -3.51 176.07 M0.86 0.33 C-0.15 30.04, -3.97 147.67, -4.65 177.2" stroke="#1e1e1e" stroke-width="2" fill="none"></path></g><g transform="translate(924.4633907079419 790.0072994689826) rotate(0 -1.5648193600042077 88.42108273275494)"><path d="M-14.11 148.73 C-9.25 158.89, -8.48 170.94, -4.65 177.2 M-14.11 148.73 C-10.89 157.03, -9.33 163.86, -4.65 177.2" stroke="#1e1e1e" stroke-width="2" fill="none"></path></g><g transform="translate(924.4633907079419 790.0072994689826) rotate(0 -1.5648193600042077 88.42108273275494)"><path d="M6.41 149.32 C3.55 159.11, -3.41 170.93, -4.65 177.2 M6.41 149.32 C4.14 157.28, 0.22 163.95, -4.65 177.2" stroke="#1e1e1e" stroke-width="2" fill="none"></path></g></g><mask id="mask-6hFJ15GRQTNgJ18mmPeQk"><rect x="0" y="0" fill="#fff" width="1027.5930294279501" height="1066.8494649344925"></rect><rect x="901.2237666604376" y="866.9283822017376" fill="#000" width="43.349609375" height="23" opacity="1"></rect></mask><g transform="translate(901.2237666604376 866.9283822017378) rotate(0 21.343659641295858 11.847474670857196)"><text x="21.6748046875" y="0" font-family="Helvetica, Segoe UI Emoji" font-size="20px" fill="#1e1e1e" text-anchor="middle" style="white-space: pre;" direction="ltr" dominant-baseline="text-before-edge">draw</text></g><g transform="translate(859.5804534948209 987.6110394679035) rotate(0 55.0341796875 11.5)"><text x="0" y="0" font-family="Helvetica, Segoe UI Emoji" font-size="20px" fill="#e03131" text-anchor="start" style="white-space: pre;" direction="ltr" dominant-baseline="text-before-edge">do not move</text></g><g transform="translate(1013.7164126672617 721.214618871609) rotate(0 16.6845703125 11.5)"><text x="0" y="0" font-family="Helvetica, Segoe UI Emoji" font-size="20px" fill="#1e1e1e" text-anchor="start" style="white-space: pre;" direction="ltr" dominant-baseline="text-before-edge">210</text></g><g mask="url(#mask-e2jfrF_2wAGJH3rjjT7ob)" stroke-linecap="round"><g transform="translate(1038.2467435817275 784.9185041331539) rotate(0 -1.5648193600042077 88.42108273275494)"><path d="M-0.9 0.57 C-1.4 30.06, -2.16 146.73, -2.49 176.02 M0.83 -0.17 C0.18 29.53, -2.38 147.53, -3.1 177.12" stroke="#1e1e1e" stroke-width="2" fill="none"></path></g><g transform="translate(1038.2467435817275 784.9185041331539) rotate(0 -1.5648193600042077 88.42108273275494)"><path d="M-12.72 148.71 C-8.66 159.63, -7.68 168.79, -3.1 177.12 M-12.72 148.71 C-10.59 156.42, -7.73 162.83, -3.1 177.12" stroke="#1e1e1e" stroke-width="2" fill="none"></path></g><g transform="translate(1038.2467435817275 784.9185041331539) rotate(0 -1.5648193600042077 88.42108273275494)"><path d="M7.8 149.17 C4.8 159.78, -1.28 168.78, -3.1 177.12 M7.8 149.17 C4.67 156.9, 2.26 163.19, -3.1 177.12" stroke="#1e1e1e" stroke-width="2" fill="none"></path></g></g><mask id="mask-e2jfrF_2wAGJH3rjjT7ob"><rect x="0" y="0" fill="#fff" width="1141.3763823017357" height="1061.7606695986638"></rect><rect x="1015.0071195342232" y="861.8395868659088" fill="#000" width="43.349609375" height="23" opacity="1"></rect></mask><g transform="translate(1015.0071195342234 861.839586865909) rotate(0 22.10642213957408 11.556029056441048)"><text x="21.6748046875" y="0" font-family="Helvetica, Segoe UI Emoji" font-size="20px" fill="#1e1e1e" text-anchor="middle" style="white-space: pre;" direction="ltr" dominant-baseline="text-before-edge">draw</text></g><g transform="translate(1012.2285275642826 978.290265462859) rotate(0 24.453125 11.5)"><text x="0" y="0" font-family="Helvetica, Segoe UI Emoji" font-size="20px" fill="#2f9e44" text-anchor="start" style="white-space: pre;" direction="ltr" dominant-baseline="text-before-edge">move</text></g><g transform="translate(582.0671952666639 1032.4585772963062) rotate(0 67.3583984375 11.5)"><text x="0" y="0" font-family="Helvetica, Segoe UI Emoji" font-size="20px" fill="#2f9e44" text-anchor="start" style="white-space: pre;" direction="ltr" dominant-baseline="text-before-edge">lastMove = 110</text></g><g transform="translate(1012.1498396122993 1012.6516515685983) rotate(0 68.095703125 11.5)"><text x="0" y="0" font-family="Helvetica, Segoe UI Emoji" font-size="20px" fill="#2f9e44" text-anchor="start" style="white-space: pre;" direction="ltr" dominant-baseline="text-before-edge">lastMove = 210</text></g></svg>