<svg version="1.1" xmlns="http://www.w3.org/2000/svg" viewBox="0 0 355.8783920104938 361.4777320449475" width="355.8783920104938" height="361.4777320449475">
  <!-- svg-source:excalidraw -->
  
  <defs>
    <style class="style-fonts">
      @font-face {
        font-family: "Virgil";
        src: url("https://file%2B.vscode-resource.vscode-cdn.net/Users/ruangguru/.vscode-insiders/extensions/pomdtr.excalidraw-editor-3.7.2/public//dist/excalidraw-assets/Virgil.woff2");
      }
      @font-face {
        font-family: "Cascadia";
        src: url("https://file%2B.vscode-resource.vscode-cdn.net/Users/ruangguru/.vscode-insiders/extensions/pomdtr.excalidraw-editor-3.7.2/public//dist/excalidraw-assets/Cascadia.woff2");
      }
      @font-face {
        font-family: "Assistant";
        src: url("https://file%2B.vscode-resource.vscode-cdn.net/Users/ruangguru/.vscode-insiders/extensions/pomdtr.excalidraw-editor-3.7.2/public//dist/excalidraw-assets/Assistant-Regular.woff2");
      }
    </style>
    
  </defs>
  <rect x="0" y="0" width="355.8783920104938" height="361.4777320449475" fill="#ffffff"></rect><g stroke-linecap="round"><g transform="translate(10 131.8396819303473) rotate(0 136.47311055076216 -1.396780177615824)"><path d="M0 0 C68.85 -1.71, 135.07 -1.65, 272.95 -2.79 M0 0 C98.64 -0.54, 197.81 -0.9, 272.95 -2.79" stroke="#1e1e1e" stroke-width="2" fill="none"></path></g></g><mask></mask><g stroke-linecap="round" transform="translate(81.86548504011807 111.26906800309462) rotate(0 9.383287914498624 8.012676920538297)"><path d="M8.29 -0.34 C10.08 -0.62, 12.74 0.01, 14.46 1 C16.18 1.99, 17.98 3.77, 18.61 5.57 C19.24 7.38, 19.06 10.16, 18.24 11.81 C17.43 13.46, 15.63 14.73, 13.71 15.47 C11.8 16.2, 8.7 16.64, 6.78 16.2 C4.86 15.76, 3.34 14.22, 2.21 12.81 C1.08 11.39, -0.1 9.41, 0.02 7.71 C0.14 6.02, 1.46 3.95, 2.94 2.65 C4.43 1.34, 7.85 0.27, 8.93 -0.12 C10 -0.51, 9.46 0.23, 9.39 0.31 M7.87 -0.62 C9.63 -0.95, 12.38 -0.11, 14.22 0.96 C16.07 2.03, 18.39 4.1, 18.94 5.79 C19.48 7.48, 18.51 9.63, 17.5 11.1 C16.49 12.56, 14.63 13.92, 12.89 14.58 C11.15 15.24, 8.87 15.37, 7.04 15.06 C5.22 14.74, 3.07 14.02, 1.93 12.71 C0.8 11.41, 0.02 8.93, 0.25 7.24 C0.47 5.55, 1.96 3.66, 3.27 2.55 C4.57 1.44, 7.21 1.01, 8.06 0.58 C8.91 0.16, 8.29 0.02, 8.39 -0.01" stroke="#1e1e1e" stroke-width="2" fill="none"></path></g><g stroke-linecap="round"><g transform="translate(90.22126923191871 128.4696034473963) rotate(0 0.5422522971730928 24.77108940095016)"><path d="M0 0 C0.85 9.99, 0.05 20.39, 1.08 49.54 M0 0 C-0.22 12.86, 0.82 25.37, 1.08 49.54" stroke="#e03131" stroke-width="2" fill="none"></path></g><g transform="translate(90.22126923191871 128.4696034473963) rotate(0 0.5422522971730928 24.77108940095016)"><path d="M-7.87 26.44 C-5.33 30.8, -4.45 35.56, 1.08 49.54 M-7.87 26.44 C-5.99 32.59, -2.96 38.41, 1.08 49.54" stroke="#e03131" stroke-width="2" fill="none"></path></g><g transform="translate(90.22126923191871 128.4696034473963) rotate(0 0.5422522971730928 24.77108940095016)"><path d="M9.07 26.09 C8 30.49, 5.26 35.33, 1.08 49.54 M9.07 26.09 C6.66 32.36, 5.41 38.27, 1.08 49.54" stroke="#e03131" stroke-width="2" fill="none"></path></g></g><mask></mask><g transform="translate(20.1185958679157 226.47773204494752) rotate(0 162.87989807128906 62.5)"><text x="0" y="0" font-family="Virgil, Segoe UI Emoji" font-size="20px" fill="#1e1e1e" text-anchor="start" style="white-space: pre;" direction="ltr" dominant-baseline="text-before-edge">if (keyCode == DOWN_ARROW) {</text><text x="0" y="25" font-family="Virgil, Segoe UI Emoji" font-size="20px" fill="#1e1e1e" text-anchor="start" style="white-space: pre;" direction="ltr" dominant-baseline="text-before-edge">   if (y &lt;= 390) {</text><text x="0" y="50" font-family="Virgil, Segoe UI Emoji" font-size="20px" fill="#1e1e1e" text-anchor="start" style="white-space: pre;" direction="ltr" dominant-baseline="text-before-edge">     y = y + 10</text><text x="0" y="75" font-family="Virgil, Segoe UI Emoji" font-size="20px" fill="#1e1e1e" text-anchor="start" style="white-space: pre;" direction="ltr" dominant-baseline="text-before-edge">   }</text><text x="0" y="100" font-family="Virgil, Segoe UI Emoji" font-size="20px" fill="#1e1e1e" text-anchor="start" style="white-space: pre;" direction="ltr" dominant-baseline="text-before-edge">}</text></g><g transform="translate(112.73194602737613 150.42542716467892) rotate(0 51.77995300292969 12.5)"><text x="0" y="0" font-family="Virgil, Segoe UI Emoji" font-size="20px" fill="#1e1e1e" text-anchor="start" style="white-space: pre;" direction="ltr" dominant-baseline="text-before-edge">don't move</text></g><g stroke-linecap="round" transform="translate(245.6865487378775 10) rotate(0 9.383287914498624 8.012676920538297)"><path d="M10.37 0.47 C12.4 0.52, 15 1.08, 16.35 2.24 C17.7 3.39, 18.27 5.63, 18.45 7.39 C18.63 9.15, 18.48 11.38, 17.41 12.8 C16.34 14.21, 14.02 15.49, 12.03 15.88 C10.03 16.26, 7.34 15.9, 5.41 15.1 C3.49 14.3, 1.36 12.63, 0.47 11.07 C-0.42 9.52, -0.47 7.44, 0.08 5.77 C0.64 4.11, 2.05 2.05, 3.8 1.1 C5.55 0.14, 9.45 0.25, 10.59 0.04 C11.73 -0.17, 10.71 -0.23, 10.64 -0.15 M11.36 -0.2 C13.26 -0.11, 15.18 0.77, 16.4 2.12 C17.62 3.47, 18.73 6.05, 18.66 7.91 C18.59 9.77, 17.33 12.01, 15.97 13.28 C14.62 14.56, 12.45 15.23, 10.54 15.54 C8.64 15.84, 6.14 15.84, 4.55 15.14 C2.95 14.44, 1.52 12.89, 0.97 11.33 C0.43 9.77, 0.6 7.48, 1.29 5.8 C1.98 4.13, 3.54 2.29, 5.13 1.26 C6.71 0.23, 9.79 -0.08, 10.81 -0.37 C11.83 -0.65, 11.14 -0.74, 11.24 -0.47" stroke="#1e1e1e" stroke-width="2" fill="none"></path></g><g stroke-linecap="round"><g transform="translate(253.07044700393863 27.909802164678922) rotate(0 0.7275390625 30.4248046875)"><path d="M-0.34 0.58 C-0.33 10.72, 0.83 50.58, 0.94 60.59 M1.68 -0.16 C1.42 10.18, -0.43 51.65, -0.28 61.99" stroke="#1e1e1e" stroke-width="2" fill="none"></path></g><g transform="translate(253.07044700393863 27.909802164678922) rotate(0 0.7275390625 30.4248046875)"><path d="M-10 33.61 C-5.49 43.26, -3.3 52.65, -0.28 61.99 M-10 33.61 C-7.08 41.16, -4.96 49.71, -0.28 61.99" stroke="#1e1e1e" stroke-width="2" fill="none"></path></g><g transform="translate(253.07044700393863 27.909802164678922) rotate(0 0.7275390625 30.4248046875)"><path d="M10.52 34.01 C7.46 43.45, 2.07 52.69, -0.28 61.99 M10.52 34.01 C7.58 41.27, 3.82 49.71, -0.28 61.99" stroke="#1e1e1e" stroke-width="2" fill="none"></path></g></g><mask></mask><g transform="translate(279.7319460273761 46.42542716467892) rotate(0 10.409988403320312 12.5)"><text x="0" y="0" font-family="Virgil, Segoe UI Emoji" font-size="20px" fill="#1e1e1e" text-anchor="start" style="white-space: pre;" direction="ltr" dominant-baseline="text-before-edge">ok</text></g></svg>