<svg version="1.1" xmlns="http://www.w3.org/2000/svg" viewBox="0 0 675.3164002207759 401.01400405924505" width="675.3164002207759" height="401.01400405924505">
  <!-- svg-source:excalidraw -->
  
  <defs>
    <style class="style-fonts">
      @font-face {
        font-family: "Virgil";
        src: url("https://file%2B.vscode-resource.vscode-cdn.net/Users/ruangguru/.vscode-insiders/extensions/pomdtr.excalidraw-editor-3.7.2/public//dist/excalidraw-assets/Virgil.woff2");
      }
      @font-face {
        font-family: "Cascadia";
        src: url("https://file%2B.vscode-resource.vscode-cdn.net/Users/ruangguru/.vscode-insiders/extensions/pomdtr.excalidraw-editor-3.7.2/public//dist/excalidraw-assets/Cascadia.woff2");
      }
      @font-face {
        font-family: "Assistant";
        src: url("https://file%2B.vscode-resource.vscode-cdn.net/Users/ruangguru/.vscode-insiders/extensions/pomdtr.excalidraw-editor-3.7.2/public//dist/excalidraw-assets/Assistant-Regular.woff2");
      }
    </style>
    
  </defs>
  <rect x="0" y="0" width="675.3164002207759" height="401.01400405924505" fill="#ffffff"></rect><g stroke-linecap="round" transform="translate(140.31762788278002 66.99484642784273) rotate(0 185.913240772039 132.70556589134992)"><path d="M0 0 C140.07 -1.82, 283.03 -1.22, 371.83 0 M0 0 C93.74 -0.38, 188.81 0.06, 371.83 0 M371.83 0 C373.7 88.71, 371.44 178.16, 371.83 265.41 M371.83 0 C373.28 94.84, 373.82 188.4, 371.83 265.41 M371.83 265.41 C225.09 264.76, 76.48 265.49, 0 265.41 M371.83 265.41 C228.35 266.87, 85.66 267.67, 0 265.41 M0 265.41 C-0.82 163.45, 0.28 58.46, 0 0 M0 265.41 C1.31 195.07, 1.32 124.75, 0 0" stroke="#1e1e1e" stroke-width="2" fill="none"></path></g><g transform="translate(101.58396492458678 12.26854110814179) rotate(0 28.66999053955078 25)"><text x="0" y="0" font-family="Virgil, Segoe UI Emoji" font-size="20px" fill="#1e1e1e" text-anchor="start" style="white-space: pre;" direction="ltr" dominant-baseline="text-before-edge">x = 0</text><text x="0" y="25" font-family="Virgil, Segoe UI Emoji" font-size="20px" fill="#1e1e1e" text-anchor="start" style="white-space: pre;" direction="ltr" dominant-baseline="text-before-edge">y = 0</text></g><g transform="translate(501.23483099044415 340.09971820527903) rotate(0 41.949981689453125 25)"><text x="0" y="0" font-family="Virgil, Segoe UI Emoji" font-size="20px" fill="#1e1e1e" text-anchor="start" style="white-space: pre;" direction="ltr" dominant-baseline="text-before-edge">x = 400</text><text x="0" y="25" font-family="Virgil, Segoe UI Emoji" font-size="20px" fill="#1e1e1e" text-anchor="start" style="white-space: pre;" direction="ltr" dominant-baseline="text-before-edge">y = 400</text></g><g transform="translate(502.06243142355106 10) rotate(0 41.949981689453125 25)"><text x="0" y="0" font-family="Virgil, Segoe UI Emoji" font-size="20px" fill="#1e1e1e" text-anchor="start" style="white-space: pre;" direction="ltr" dominant-baseline="text-before-edge">x = 400</text><text x="0" y="25" font-family="Virgil, Segoe UI Emoji" font-size="20px" fill="#1e1e1e" text-anchor="start" style="white-space: pre;" direction="ltr" dominant-baseline="text-before-edge">y = 0</text></g><g transform="translate(86.67570811080668 341.01400405924505) rotate(0 41.019981384277344 25)"><text x="0" y="0" font-family="Virgil, Segoe UI Emoji" font-size="20px" fill="#1e1e1e" text-anchor="start" style="white-space: pre;" direction="ltr" dominant-baseline="text-before-edge">x = 0</text><text x="0" y="25" font-family="Virgil, Segoe UI Emoji" font-size="20px" fill="#1e1e1e" text-anchor="start" style="white-space: pre;" direction="ltr" dominant-baseline="text-before-edge">y = 400</text></g><g stroke-linecap="round" transform="translate(514.6681573991223 192.66054459236466) rotate(0 6.391823107871801 6.00092092701675)"><path d="M5.18 0.18 C6.48 -0.05, 8.57 0.5, 9.85 1.17 C11.14 1.84, 12.46 3.09, 12.89 4.21 C13.32 5.33, 13 6.68, 12.44 7.89 C11.88 9.11, 10.79 10.86, 9.52 11.49 C8.26 12.12, 6.17 11.98, 4.85 11.68 C3.53 11.37, 2.35 10.57, 1.6 9.66 C0.84 8.75, 0.34 7.38, 0.33 6.21 C0.31 5.03, 0.69 3.69, 1.5 2.59 C2.3 1.48, 4.44 -0.07, 5.17 -0.4 C5.9 -0.73, 5.76 0.45, 5.89 0.63 M8.1 -0.06 C9.45 0.17, 11.41 1.37, 12.25 2.36 C13.08 3.35, 13.26 4.53, 13.11 5.88 C12.96 7.23, 12.36 9.48, 11.33 10.44 C10.31 11.4, 8.41 11.65, 6.96 11.64 C5.51 11.64, 3.86 11.03, 2.64 10.41 C1.42 9.78, 0.01 9.02, -0.36 7.87 C-0.73 6.72, -0.21 4.66, 0.44 3.49 C1.1 2.32, 2.44 1.33, 3.57 0.84 C4.69 0.35, 6.54 0.52, 7.18 0.54 C7.83 0.55, 7.42 0.78, 7.44 0.93" stroke="none" stroke-width="0" fill="#ffc9c9"></path><path d="M7.38 -0.18 C8.6 -0.18, 9.67 0.61, 10.62 1.6 C11.56 2.6, 12.95 4.46, 13.04 5.8 C13.13 7.13, 11.94 8.52, 11.17 9.61 C10.4 10.69, 9.66 11.91, 8.41 12.29 C7.15 12.68, 4.91 12.59, 3.64 11.92 C2.36 11.25, 1.26 9.48, 0.77 8.26 C0.29 7.05, 0.34 5.74, 0.7 4.62 C1.06 3.51, 1.77 2.35, 2.93 1.57 C4.09 0.79, 6.85 0.24, 7.69 -0.03 C8.53 -0.3, 8.14 -0.19, 7.97 -0.07 M7.53 0.04 C8.79 0.1, 10.48 1.41, 11.23 2.27 C11.98 3.12, 12.02 4.07, 12.04 5.16 C12.05 6.25, 11.92 7.72, 11.32 8.81 C10.72 9.9, 9.64 11.28, 8.43 11.7 C7.22 12.12, 5.34 11.89, 4.08 11.33 C2.83 10.76, 1.57 9.43, 0.89 8.31 C0.21 7.18, -0.4 5.66, -0.01 4.57 C0.38 3.48, 1.96 2.5, 3.23 1.77 C4.5 1.04, 7.11 0.49, 7.6 0.19 C8.1 -0.11, 6.35 -0.12, 6.21 -0.04" stroke="#1e1e1e" stroke-width="2" fill="none"></path></g><g stroke-linecap="round" transform="translate(319.64850117845504 336.4558607724757) rotate(0 6.391823107871801 6.00092092701675)"><path d="M6.76 0.38 C8.16 0.35, 10.06 0.98, 11.06 1.73 C12.06 2.48, 12.61 3.62, 12.74 4.89 C12.86 6.16, 12.58 8.28, 11.8 9.37 C11.02 10.45, 9.31 11.09, 8.05 11.43 C6.78 11.77, 5.37 11.78, 4.22 11.4 C3.07 11.02, 1.83 10.14, 1.14 9.12 C0.46 8.11, -0.03 6.68, 0.13 5.31 C0.28 3.94, 0.95 1.7, 2.08 0.89 C3.22 0.08, 6.07 0.59, 6.94 0.47 C7.81 0.35, 7.27 0.09, 7.3 0.15 M6.78 -0.07 C8.1 -0.25, 9.57 -0.12, 10.59 0.72 C11.62 1.56, 12.71 3.68, 12.93 4.97 C13.16 6.25, 12.64 7.42, 11.93 8.42 C11.22 9.41, 10 10.35, 8.66 10.93 C7.32 11.52, 5.17 12.2, 3.89 11.91 C2.6 11.61, 1.57 10.21, 0.93 9.14 C0.3 8.07, 0 6.66, 0.07 5.47 C0.14 4.27, 0.41 2.77, 1.34 1.97 C2.27 1.17, 4.93 0.85, 5.66 0.66 C6.38 0.47, 5.74 0.83, 5.7 0.85" stroke="none" stroke-width="0" fill="#ffc9c9"></path><path d="M6.13 -0.17 C7.41 -0.16, 9.79 0.84, 10.81 1.73 C11.83 2.61, 12 3.85, 12.25 5.15 C12.5 6.45, 12.92 8.36, 12.29 9.53 C11.67 10.69, 9.83 11.84, 8.5 12.14 C7.18 12.45, 5.55 11.87, 4.35 11.37 C3.15 10.88, 1.98 10.15, 1.31 9.16 C0.63 8.17, 0.05 6.73, 0.29 5.41 C0.53 4.1, 1.59 2.24, 2.75 1.29 C3.9 0.34, 6.58 -0.1, 7.22 -0.27 C7.87 -0.45, 6.65 0.01, 6.59 0.23 M7.41 0.58 C8.49 0.58, 9.44 0.83, 10.27 1.57 C11.11 2.3, 12.15 3.68, 12.42 4.99 C12.7 6.31, 12.58 8.33, 11.89 9.44 C11.2 10.56, 9.62 11.41, 8.28 11.69 C6.95 11.97, 5.18 11.65, 3.86 11.12 C2.54 10.59, 0.86 9.53, 0.35 8.51 C-0.17 7.49, 0.26 6.22, 0.79 5 C1.33 3.78, 2.6 2.06, 3.53 1.2 C4.46 0.35, 5.81 0.02, 6.38 -0.14 C6.95 -0.31, 6.89 0.14, 6.94 0.22" stroke="#1e1e1e" stroke-width="2" fill="none"></path></g><g stroke-linecap="round" transform="translate(124.43784012578703 185.21576916583717) rotate(0 6.391823107871801 6.00092092701675)"><path d="M7.16 0.28 C8.42 0.17, 9.83 0.56, 10.74 1.43 C11.65 2.3, 12.54 4.25, 12.64 5.51 C12.74 6.77, 12.04 7.98, 11.33 8.98 C10.63 9.98, 9.59 11.05, 8.41 11.51 C7.24 11.97, 5.56 12.12, 4.28 11.73 C3 11.35, 1.48 10.45, 0.74 9.21 C0.01 7.96, -0.45 5.49, -0.11 4.24 C0.22 2.99, 1.52 2.41, 2.76 1.71 C4 1.01, 6.52 0.26, 7.32 0.03 C8.13 -0.19, 7.68 0.23, 7.58 0.35 M6.25 -0.48 C7.48 -0.58, 9.4 0.65, 10.43 1.43 C11.46 2.21, 12.18 3.1, 12.44 4.2 C12.69 5.29, 12.61 6.77, 11.94 8.01 C11.27 9.25, 9.63 11.03, 8.4 11.64 C7.17 12.25, 5.79 12, 4.57 11.66 C3.36 11.32, 2.01 10.58, 1.13 9.6 C0.26 8.62, -0.74 6.98, -0.68 5.78 C-0.61 4.57, 0.48 3.2, 1.51 2.36 C2.54 1.52, 4.91 1.08, 5.53 0.74 C6.15 0.4, 5.11 0.37, 5.25 0.31" stroke="none" stroke-width="0" fill="#ffc9c9"></path><path d="M6.01 0.32 C7.28 0.18, 8.38 0.42, 9.53 1.18 C10.69 1.93, 12.49 3.55, 12.93 4.85 C13.37 6.14, 12.79 7.89, 12.2 8.94 C11.6 9.99, 10.52 10.64, 9.37 11.15 C8.22 11.66, 6.63 12.21, 5.3 12.02 C3.98 11.83, 2.2 11.11, 1.39 10.02 C0.58 8.93, 0.3 6.9, 0.44 5.48 C0.59 4.07, 1.4 2.44, 2.26 1.54 C3.12 0.64, 4.88 0.24, 5.61 0.08 C6.34 -0.08, 6.51 0.4, 6.63 0.56 M5.73 -0.26 C6.91 -0.52, 8.98 -0.01, 10.2 0.85 C11.41 1.71, 12.68 3.58, 13.02 4.92 C13.37 6.26, 12.95 7.83, 12.24 8.91 C11.54 9.98, 10.18 10.91, 8.8 11.38 C7.42 11.84, 5.19 11.98, 3.95 11.69 C2.71 11.4, 1.9 10.71, 1.38 9.61 C0.86 8.51, 0.77 6.49, 0.82 5.09 C0.86 3.69, 0.73 2.03, 1.65 1.2 C2.57 0.36, 5.59 0.3, 6.34 0.07 C7.09 -0.16, 6.23 -0.28, 6.16 -0.17" stroke="#1e1e1e" stroke-width="2" fill="none"></path></g><g stroke-linecap="round" transform="translate(318.52486185524367 53.81702688328687) rotate(0 6.391823107871801 6.00092092701675)"><path d="M7.63 -0.04 C8.82 0.12, 10.48 1.53, 11.26 2.51 C12.04 3.49, 12.32 4.65, 12.33 5.85 C12.34 7.05, 12.08 8.67, 11.32 9.71 C10.55 10.75, 9.1 11.8, 7.74 12.11 C6.38 12.42, 4.41 12.35, 3.13 11.58 C1.86 10.81, 0.5 8.71, 0.09 7.51 C-0.32 6.3, 0.08 5.45, 0.68 4.33 C1.28 3.21, 2.42 1.43, 3.71 0.77 C4.99 0.11, 7.67 0.42, 8.41 0.37 C9.15 0.33, 8.27 0.38, 8.14 0.52 M6.54 0.3 C7.75 0.22, 9.24 0.33, 10.22 0.98 C11.21 1.63, 12.25 2.87, 12.44 4.21 C12.64 5.55, 12.02 7.82, 11.39 9.03 C10.75 10.24, 9.81 10.99, 8.64 11.47 C7.48 11.95, 5.79 12.23, 4.38 11.91 C2.98 11.58, 1.02 10.53, 0.23 9.51 C-0.55 8.48, -0.6 6.98, -0.35 5.76 C-0.09 4.55, 0.79 3.16, 1.78 2.23 C2.76 1.3, 4.74 0.56, 5.55 0.18 C6.36 -0.21, 6.49 -0.26, 6.64 -0.09" stroke="none" stroke-width="0" fill="#ffc9c9"></path><path d="M5.4 0.16 C6.7 0.02, 9.26 0.78, 10.45 1.58 C11.64 2.37, 12.22 3.82, 12.54 4.94 C12.86 6.06, 12.87 7.17, 12.37 8.29 C11.87 9.41, 10.81 10.97, 9.56 11.64 C8.32 12.31, 6.24 12.68, 4.91 12.3 C3.58 11.91, 2.32 10.54, 1.58 9.35 C0.84 8.17, 0.51 6.44, 0.48 5.19 C0.44 3.94, 0.43 2.62, 1.38 1.83 C2.32 1.04, 5.32 0.66, 6.15 0.45 C6.98 0.23, 6.37 0.48, 6.35 0.55 M7.21 -0.49 C8.67 -0.31, 10.66 1.03, 11.65 2.09 C12.63 3.16, 13.15 4.66, 13.13 5.91 C13.11 7.16, 12.51 8.6, 11.53 9.61 C10.55 10.62, 8.55 11.62, 7.25 11.99 C5.94 12.35, 4.73 12.46, 3.7 11.83 C2.68 11.19, 1.74 9.54, 1.08 8.19 C0.42 6.84, -0.61 4.95, -0.27 3.73 C0.07 2.51, 1.88 1.51, 3.13 0.85 C4.39 0.2, 6.62 -0.11, 7.27 -0.19 C7.91 -0.28, 6.96 0.22, 6.99 0.34" stroke="#1e1e1e" stroke-width="2" fill="none"></path></g><g transform="translate(278.8670995992129 14.671199282518273) rotate(0 47.19996643066406 12.5)"><text x="0" y="0" font-family="Virgil, Segoe UI Emoji" font-size="20px" fill="#1e1e1e" text-anchor="start" style="white-space: pre;" direction="ltr" dominant-baseline="text-before-edge">if (y &lt; 0)</text></g><g transform="translate(544.8964783457759 185.95341303012856) rotate(0 60.2099609375 12.5)"><text x="0" y="0" font-family="Virgil, Segoe UI Emoji" font-size="20px" fill="#1e1e1e" text-anchor="start" style="white-space: pre;" direction="ltr" dominant-baseline="text-before-edge">if (x &gt; 400)</text></g><g transform="translate(279.8893333357587 357.6657827340771) rotate(0 59.27996063232422 12.5)"><text x="0" y="0" font-family="Virgil, Segoe UI Emoji" font-size="20px" fill="#1e1e1e" text-anchor="start" style="white-space: pre;" direction="ltr" dominant-baseline="text-before-edge">if (y &gt; 400)</text></g><g transform="translate(10 175.7556092743505) rotate(0 48.129966735839844 12.5)"><text x="0" y="0" font-family="Virgil, Segoe UI Emoji" font-size="20px" fill="#1e1e1e" text-anchor="start" style="white-space: pre;" direction="ltr" dominant-baseline="text-before-edge">if (x &lt; 0)</text></g></svg>